<svg xmlns="http://www.w3.org/2000/svg" version="1.1" viewBox="0 0 826.07 461.722"><defs><style>@font-face{font-family:&quot;Virgil&quot;;src:url(https://excalidraw.com/FG_Virgil.woff2)}@font-face{font-family:&quot;Cascadia&quot;;src:url(https://excalidraw.com/Cascadia.woff2)}</style></defs><rect width="826.07" height="461.722" x="0" y="0" fill="#fff"/><g><path fill="none" stroke="#000" stroke-width="1" d="M1.0971467439085245 0.37047520838677883 C22.851871248750918 -0.5566277547581858, 49.14760565654741 1.3762305335299305, 59.75985747016966 1.6366404052823782 M0.7644221661612391 -0.5776172308251262 C12.836910701009268 -0.047262531299585464, 26.745934689653684 -0.55204130389213, 61.469275432638824 0.9511067541316152 M60.616281324997544 -1.927463198080659 C59.669029674168875 25.231883190639632, 62.175495764848044 53.852264354140196, 58.9425033275038 68.81685713492334 M60.618246275000274 0.9226383836939931 C61.60687367047644 23.697049772696282, 60.073836872237685 48.468131884659996, 61.799806046299636 69.67639612872154 M62.45247637666762 70.72591332159936 C45.436979499480984 68.99864117484165, 29.902067720560957 68.22361753563953, -1.368276184424758 69.62233898602426 M61.27007358055562 68.96054219920188 C48.51044698083585 68.95023963039026, 34.46424792475622 70.7335754055272, -0.8446398796513677 70.0704067023471 M-0.1446953471750021 69.09293386898935 C-1.2555610217331266 41.01963985474916, -1.5882711090324735 13.059602294976735, 1.7225918713957071 -0.7677758578211069 M-0.07919870037585497 70.68157151062042 C0.29159670555003037 52.724846398163955, 0.044267381066158906 37.54512648132517, 0.8364366171881557 -0.3680517105385661" transform="translate(10 158.63055935153716) rotate(0 30.447996139526367 34.84101867675781)"/></g><g><g><path fill="none" stroke="#000" stroke-width="1" d="M1.1071660604327918 0.8129031512886284 C12.143782548730572 0.5703960710515578, 55.23922185959915 -1.7066838012387355, 66.25300395153462 -1.7883376862853766 M0.22928951282054166 0.19407336037606004 C11.074171910074849 0.09525752068807687, 54.036512173997856 -0.515917461303373, 65.12016681093722 -0.7899514635279774" transform="translate(73.56019973754883 196.70819607028716) rotate(0 33.24114673217758 -0.4877172674983683)"/></g><g><path fill="none" stroke="#000" stroke-width="1" d="M38.48070027275768 9.408531408869184 C43.9205693736141 7.446199473714344, 55.91541936794939 3.1946626692704116, 64.50504273992031 -1.4439835206791758 M37.59428937236604 9.46795860409782 C48.044774708012255 5.041675965859012, 56.565672258636326 2.033893744006803, 64.27021822310984 -0.6582344792038202" transform="translate(73.56019973754883 196.70819607028716) rotate(0 33.24114673217758 -0.4877172674983683)"/></g><g><path fill="none" stroke="#000" stroke-width="1" d="M38.0975800090721 -11.109100551213174 C43.596461605198385 -6.862732698064537, 55.707310997698855 -4.902034899596519, 64.50504273992031 -1.4439835206791758 M37.21116910868046 -11.049673355984538 C47.95961029147047 -8.072558282291507, 56.61878684990542 -3.674943142031137, 64.27021822310984 -0.6582344792038202" transform="translate(73.56019973754883 196.70819607028716) rotate(0 33.24114673217758 -0.4877172674983683)"/></g></g><g><path fill="none" stroke="#000" stroke-width="1" d="M25.186245271914096 -0.8671791009457159 C30.83268300249907 -1.5945121041445645, 38.79935300335984 1.5098730288837503, 43.726037896267066 5.703842124238509 C48.65272278917429 9.897811219593269, 53.41429518977755 18.10580532921072, 54.74635462935744 24.29663547118284 C56.078414068937334 30.487465613154956, 54.6647234340637 37.167627427963524, 51.71839453374642 42.84882297607121 C48.772065633429136 48.5300185241789, 42.51005395099932 55.76775031894519, 37.068381227453735 58.383808759828945 C31.626708503908148 60.9998672007127, 24.371601776454845 60.48777135764322, 19.068358192472893 58.545173621373735 C13.76511460849094 56.60257588510425, 8.471216363869301 52.25454051540702, 5.248919723562025 46.72822234221205 C2.02662308325475 41.20190416901708, -0.7916983513768958 31.938848991366566, -0.26542164937075796 25.387264582203883 C0.2608550526353799 18.8356801730412, 3.5471558649981807 11.491492439397469, 8.406579935598852 7.418715887235958 C13.266004006199523 3.345939335074447, 24.88095042613932 2.1413833139430762, 28.891122774233274 0.950605269234817 C32.90129512232723 -0.24017277547344196, 32.570312124241624 -0.22789857798735014, 32.46761402416257 0.27404761898640473 M36.67486734568537 2.000143538968313 C41.760541731459114 3.808690674882686, 46.77608544480514 9.30508253581048, 49.74131026415665 14.626961837614996 C52.706535083508165 19.948841139419514, 55.01437138073395 27.409553231924967, 54.46621626179443 33.93141934979541 C53.91806114285491 40.45328546766586, 50.81239022172012 49.457737807639624, 46.452379550519524 53.75815854483767 C42.092368879318926 58.058579282035716, 34.248928209988044 59.81223843581055, 28.30615223459086 59.73394377298369 C22.363376259193682 59.65564911015684, 15.232705284677277 57.26738316393188, 10.795723698136438 53.28839056787653 C6.358742111595599 49.309397971821184, 3.146969024547923 42.15133223726713, 1.6842627153458274 35.85998819665161 C0.22155640614373162 29.56864415603609, -0.6467377513856998 21.376643526775933, 2.0194858429238636 15.540326324183427 C4.685709437233427 9.704009121590921, 11.990045827919158 3.2007702710858417, 17.681604281203207 0.8420849810965727 C23.373162734487256 -1.5166003088926963, 33.33316591052041 1.3187186112440727, 36.16883656262815 1.3882145842478124 C39.004507214735895 1.457710557251552, 34.77882310364104 0.7338717405088317, 34.695628193849664 1.2590608191190107" transform="translate(149.6801872253418 167.00763454684966) rotate(0 27.21289825439453 29.890914916992188)"/></g><g><g><path fill="none" stroke="#000" stroke-width="1" d="M-0.20666613914072518 0.8187975380569694 C12.579796108230948 1.5485701971997816, 64.24233963154256 3.029503096515934, 77.09596992395818 3.2279780719429256 M-1.7743045915290714 0.20306230019778004 C10.90652813900262 0.7104275766139229, 63.603444529660045 1.1040401255215206, 76.66030322302133 1.6006571490690111" transform="translate(215.90458297729492 193.28119411716216) rotate(0 37.66083266621456 1.7155201860703357)"/></g><g><path fill="none" stroke="#000" stroke-width="1" d="M49.625629051754785 12.895641629518012 C59.33838763297012 9.438705348331908, 66.72031491008585 5.50041941909268, 75.86965271186084 0.10983292091637842 M48.25219643691422 11.92989066050295 C57.20919113624617 7.7017783760834995, 66.73648876225272 4.879039519041093, 75.92786152668297 1.9075332003086805" transform="translate(215.90458297729492 193.28119411716216) rotate(0 37.66083266621456 1.7155201860703357)"/></g><g><path fill="none" stroke="#000" stroke-width="1" d="M50.05509345860071 -7.6210725983765695 C59.428782356009414 -4.27883161231135, 66.66837094063368 -1.4172006430420758, 75.86965271186084 0.10983292091637842 M48.68166084376014 -8.586823567391631 C57.4591285009678 -6.221518152544423, 66.8484889698504 -2.454613749264797, 75.92786152668297 1.9075332003086805" transform="translate(215.90458297729492 193.28119411716216) rotate(0 37.66083266621456 1.7155201860703357)"/></g></g><g><path fill="none" stroke="#000" stroke-width="1" d="M33.10791541054895 0.1263910003782911 C38.927986816037944 0.316678168484294, 45.84051407907128 4.817364911605158, 49.92035226519069 9.921615913922768 C54.00019045131009 15.025866916240378, 57.12990986855119 23.82077475031825, 57.58694452726539 30.751897014283948 C58.04397918597959 37.683019278249645, 56.20631659363617 45.87524826348708, 52.66256021747587 51.50834949771695 C49.118803841315575 57.14145073194682, 42.40235818718549 63.00532184496482, 36.32440627030361 64.55050441966314 C30.246454353421736 66.09568699436147, 21.788710795202675 63.91926907909949, 16.19484871618461 60.779444945906896 C10.600986637166542 57.6396208127143, 5.1084115545830215 51.9573407405846, 2.7612337961952136 45.711559620507565 C0.41405603780740563 39.46577850043053, 0.4008802406773395 29.955259053427636, 2.111782165857761 23.30475822544468 C3.822684091038183 16.654257397461723, 7.755880829193917 9.754861905654133, 13.026645347277743 5.808554652609821 C18.29740986536157 1.862247399565509, 29.762839944337614 0.16759458823068607, 33.73636927436071 -0.3730852928211945 C37.70989860438381 -0.9137651738730751, 36.70884272951565 1.7465557277035937, 36.86782132741634 2.564475366298538 M41.320827387259264 1.8715082845391429 C46.741798240848404 4.514782412995112, 53.48049171753756 12.322400634504287, 56.12851407581094 18.755845804369045 C58.77653643408432 25.189290974233803, 59.15991126923269 33.46056662096464, 57.20896153689956 40.472179303727685 C55.25801180456643 47.48379198649073, 49.70415439412653 56.84582994071055, 44.422815681812175 60.8255219009473 C39.141476969497816 64.80521386118404, 31.31001017887082 65.17003589541306, 25.52092926301341 64.35033106514817 C19.731848347156003 63.53062623488327, 13.791938467853694 60.79523997846144, 9.68833018666773 55.90729291935794 C5.584721905481769 51.01934586025445, 1.6683243135180401 42.1056679126639, 0.8992795758976406 35.0226487105272 C0.13023483827724114 27.9396295083905, 1.409447581856527 18.969512388726994, 5.074061760945334 13.40917770653775 C8.73867594003414 7.848843024348509, 16.88791776879406 3.362153349296195, 22.886964650430482 1.6606406173917492 C28.886011532066902 -0.040872114512696456, 38.14882564958976 2.5923322174448167, 41.06834305076386 3.200101315111077 C43.987860451937955 3.807870412777337, 40.3041840963562 5.029393758295971, 40.40406905747505 5.30725520338931" transform="translate(308.73637702248334 161.33062149642342) rotate(0 29.306198120117188 32.55635070800781)"/></g><g><text x="0" y="21" fill="#000" font-family="Virgil" font-size="20" text-anchor="start" transform="translate(164.89308547973633 181.89854946384185) rotate(0 12 15)" style="white-space:pre">C1</text></g><g><text x="0" y="21" fill="#000" font-family="Virgil" font-size="20" text-anchor="start" transform="translate(315.39057540893555 183.04091396579497) rotate(0 18.5 15)" style="white-space:pre">C2</text></g><g><g><path fill="none" stroke="#000" stroke-width="1" d="M-0.5343002323061228 -0.8065136488527059 C-0.6636547688394785 -0.4793466504663229, -1.0985228780657053 1.2021528903394938, -0.8203437689691782 1.185928088799119 M1.3860534163936973 1.384462740160525 C1.6407664593681694 1.4777601609006525, 1.5311337419971824 -0.07314005400985471, 1.460930288694799 -0.3140344133600592" transform="translate(179.87527322149896 153.31024169921875) rotate(0 0.31775074204578857 0.28897454565390035)"/></g><g><path fill="none" stroke="#000" stroke-width="1" d="M1.460930288694799 -0.3140344133600592 C1.460930288694799 -0.3140344133600592, 1.460930288694799 -0.3140344133600592, 1.460930288694799 -0.3140344133600592 M1.460930288694799 -0.3140344133600592 C1.460930288694799 -0.3140344133600592, 1.460930288694799 -0.3140344133600592, 1.460930288694799 -0.3140344133600592" transform="translate(179.87527322149896 153.31024169921875) rotate(0 0.31775074204578857 0.28897454565390035)"/></g><g><path fill="none" stroke="#000" stroke-width="1" d="M1.460930288694799 -0.3140344133600592 C1.460930288694799 -0.3140344133600592, 1.460930288694799 -0.3140344133600592, 1.460930288694799 -0.3140344133600592 M1.460930288694799 -0.3140344133600592 C1.460930288694799 -0.3140344133600592, 1.460930288694799 -0.3140344133600592, 1.460930288694799 -0.3140344133600592" transform="translate(179.87527322149896 153.31024169921875) rotate(0 0.31775074204578857 0.28897454565390035)"/></g></g><g><g><path fill="none" stroke="#000" stroke-width="1" d="M1.185928088799119 1.1347744222730396 C1.054369961323614 -3.597946919828197, -2.0849953313555574 -20.7112561865399, -1.5958624137057371 -29.216671821576597 C-1.1067294960559166 -37.722087456613295, 1.6935093867169315 -43.804337354151116, 4.120725594698041 -49.89771938794714 C6.547941802679151 -55.99110142174317, 6.821048096285193 -59.09441338417429, 12.96743483418092 -65.77696402435274 C19.11382157207665 -72.45951466453118, 32.17058259304046 -83.89553161029785, 40.999046022072406 -89.99302322901782 C49.827509451104355 -96.0905148477378, 45.540624174035415 -101.06908045285803, 65.93821540837261 -102.36191373667255 C86.33580664270981 -103.65474702048706, 146.98265839798202 -97.87087230827996, 163.3845934280956 -97.75002293190494 C179.78652845820918 -97.62917355552992, 163.85525182649266 -101.10550404860439, 164.349825589054 -101.6368174784224 M0.34940160607919113 0.6849270486272871 C0.6613041689828287 -3.836809001873722, -0.38857942005731205 -19.76880190894626, 0.6415643321672078 -28.07022178866813 C1.6717080843917276 -36.37164166839, 4.493943109432756 -42.98810813857015, 6.53026411942631 -49.12359222970393 C8.566585129419863 -55.259076320837714, 7.371513405290423 -58.10348239268484, 12.859490392128526 -64.88312633547082 C18.34746737896663 -71.6627702782568, 30.450472779808486 -83.43632613095536, 39.45812604045493 -89.80145588641983 C48.46577930110137 -96.1665856418843, 46.228317515391176 -101.57379986844447, 66.90540995600718 -103.07390486825764 C87.58250239662317 -104.57400986807082, 146.93174862485208 -98.99653106505389, 163.52068068415093 -98.80208588529885 C180.1096127434498 -98.60764070554382, 166.16140359265503 -101.3935996250509, 166.43900231180035 -101.90723378972741" transform="translate(182.6432453006893 155.38726806640625) rotate(0 84.99700823376021 -51.09464752463488)"/></g></g><g><path fill="none" stroke="#000" stroke-width="1" d="M37.87916813636239 0.40715966915320223 C45.723283397294225 -1.4422863066147602, 55.58718224184388 0.7628992030925086, 63.304670657911245 4.120080037336791 C71.02215907397861 7.477260871581073, 79.63512803819731 13.890625479007554, 84.18409863276658 20.5502446746189 C88.73306922733585 27.209863870230244, 91.05650892633389 36.5736373537665, 90.59849422532685 44.07779521100486 C90.1404795243198 51.58195306824322, 86.64301236289732 59.32334167012557, 81.4360104267243 65.57519181804906 C76.22900849055127 71.82704196597255, 67.45011366315299 78.77705476852232, 59.3564826082887 81.58889609854583 C51.26285155342442 84.40073742856934, 41.111827780093655 84.6559871612504, 32.874224097538594 82.44623979819013 C24.636620414983533 80.23649243512988, 15.434393505420445 74.28413323824654, 9.930860512958333 68.33041192018426 C4.4273275204962195 62.376690602121975, 0.7077008415234355 54.581324815226424, -0.1469738572340873 46.72391188981643 C-1.00164855599161 38.86649896440643, 0.8352863155258201 28.305547846411418, 4.802812320413196 21.18593436772428 C8.770338325300571 14.06632088903714, 17.893498106236756 7.565172949824385, 23.658182172090168 4.006231017693587 C29.42286623794358 0.447289085562788, 36.46202917600259 0.2995807875860059, 39.39091671553366 -0.1677172250605139 C42.31980425506474 -0.6350152377070337, 41.237034515048656 0.4328382118551227, 41.23150740927661 1.2024429418144678 M63.410133894718996 3.108348714653026 C70.80710164116888 5.536976134444439, 77.67494029895144 11.80821360454349, 82.03204925581962 18.14001938937452 C86.38915821268779 24.47182517420555, 89.40967966316538 33.29586139352951, 89.552787635928 41.099183423639204 C89.69589560869062 48.902505453748894, 87.26485964993029 58.35655156446489, 82.89069709239538 64.95995157003264 C78.51653453486048 71.56335157560041, 71.37556457039074 77.64021590162785, 63.307812290718566 80.71958345704576 C55.2400600110464 83.79895101246366, 42.94636912814629 85.25683361266867, 34.484183414362406 83.43615690254009 C26.021997700578524 81.61548019241151, 18.14307664016432 75.77275042241139, 12.53469800801529 69.79552319627425 C6.926319375866259 63.8182959701371, 1.9640130205741937 55.22043214488794, 0.8339116214682178 47.572793545717204 C-0.296189777637758 39.92515494654647, 2.179985278818925 30.85308317646956, 5.754089613379435 23.909691601249836 C9.328193947939944 16.966300026030112, 15.408229806926496 9.983490295641943, 22.278537628831277 5.912444094398857 C29.148845450736058 1.8413978931557713, 40.37432741681383 0.2237713221060661, 46.97593654480812 -0.5165856062086789 C53.577545672802415 -1.2569425345234237, 59.42776513942515 0.5304923379159897, 61.888192396797045 1.4703025245103873 C64.34861965416894 2.410112711104785, 61.90500126990621 4.259643168691735, 61.738500089039505 5.122275513357707" transform="translate(341.1112628788143 10.000000000000028) rotate(0 45.32598322088069 41.53920953924005)"/></g><g><g><path fill="none" stroke="#000" stroke-width="1" d="M0.009196245297789618 -0.08804323039948936 C18.58669245422564 -0.5670032484851977, 93.85685679766944 -3.2578255705648167, 112.56921819519592 -4.059266744046033 M-1.4451144552603363 -1.1798698716983198 C16.91844660375945 -1.342451102028062, 93.02259089357813 -2.0072819616385806, 111.8654160593484 -2.4721662391484984" transform="translate(382.631260215462 201.77271062677556) rotate(0 55.5620518699678 -2.073654987222767)"/></g><g><path fill="none" stroke="#000" stroke-width="1" d="M83.68995985022583 8.998582037909552 C95.08787977631603 4.327210619698255, 104.67999392810032 0.015937403403555095, 111.8463180065934 -4.3542707756669525 M84.63405504363426 7.417663056215867 C93.13677647165197 4.2353066403267565, 102.48798780656692 -0.4483861733009382, 111.83649960074914 -2.2985392844812282" transform="translate(382.631260215462 201.77271062677556) rotate(0 55.5620518699678 -2.073654987222767)"/></g><g><path fill="none" stroke="#000" stroke-width="1" d="M83.37258105000434 -11.520172141694273 C94.69221051132207 -8.147804258773924, 104.40874352527362 -4.41531385149282, 111.8463180065934 -4.3542707756669525 M84.31667624341277 -13.101091123387958 C92.99097152458626 -9.174663968641655, 102.4521850459248 -6.74664100015319, 111.83649960074914 -2.2985392844812282" transform="translate(382.631260215462 201.77271062677556) rotate(0 55.5620518699678 -2.073654987222767)"/></g></g><g><path fill="none" stroke="#000" stroke-width="1" d="M34.87532166588804 0.17571640655177134 C41.75859520175322 -0.22861065649678974, 50.23739145430592 2.686493038085506, 55.94309178296456 6.911500431616375 C61.648792111623195 11.136507825147245, 67.3361544965808 18.45619723613571, 69.10952363783984 25.525760767736983 C70.88289277909888 32.59532429933825, 69.43935337201705 42.7704408583535, 66.58330663051882 49.328881621224 C63.72725988902058 55.887322384094496, 58.1906147685817 61.722770427590454, 51.97324318885042 64.87640534495995 C45.75587160911913 68.03004026232944, 36.54820366944472 69.52233608257335, 29.279077152131116 68.25069112544097 C22.009950634817514 66.97904616830859, 13.221586684837899 62.59410849643529, 8.358484084968815 57.24653560216568 C3.495381485099731 51.89896270789607, 0.3121152772920551 43.215600770012585, 0.10046155291661307 36.16525375982329 C-0.11119217145882901 29.114906749633988, 2.883983813284286 20.72364240622519, 7.088561738716162 14.944453541029887 C11.29313966414804 9.165264675834585, 20.321930239497487 3.882245332245193, 25.327929105507874 1.49012056865147 C30.33392797151826 -0.9020041949422528, 34.848680817518975 0.6785101822377358, 37.12455493477849 0.591704959467549 C39.400429052038 0.5048997366973621, 39.11081213776184 0.3758402949019294, 38.983173809064944 0.9692892320303486 M22.503748391491058 4.02833673472518 C28.333475745280122 0.7759987517659979, 37.05778849446917 -0.6284621397972749, 43.764452401078465 0.8289039659766857 C50.47111630768776 2.2862700717506463, 58.43450108818885 6.936362863100126, 62.74373183114683 12.772533369368944 C67.05296257410481 18.60870387563776, 69.62540684785192 28.52998825559432, 69.61983685882632 35.84592700358959 C69.61426686980072 43.161865751584855, 66.97812861846052 51.152005000389366, 62.71031189699324 56.66816585734056 C58.44249517552596 62.18432671429176, 51.21682507157679 67.66079371264426, 44.01293653002266 68.94289214529675 C36.80904798846852 70.22499057794924, 26.039770682435414 67.46958157973354, 19.48698064766843 64.3607564532555 C12.93419061290145 61.251931326777466, 7.719127909544264 56.462622037001196, 4.696196321420761 50.28994138642852 C1.6732647332972577 44.11726073585584, 0.04341548536127848 34.39108330891323, 1.3493911189274144 27.324672549819432 C2.65536675249355 20.258261790725633, 9.09952350653262 12.11188876312588, 12.532050122817576 7.891476831865727 C15.964576739102533 3.671064900605576, 20.627616867461064 2.8619064054410344, 21.944550816637154 2.0022009622585237 C23.261484765813243 1.142495519076013, 20.105465217333915 2.041248745852808, 20.433653817874102 2.7332441727706644" transform="translate(505.01190271059806 166.6149842032333) rotate(0 35.29199773615056 34.615977894176126)"/></g><g><g><path fill="none" stroke="#000" stroke-width="1" d="M-0.32141855321824553 0.8050176020711659 C-1.3916476203641595 4.963394131149719, -3.8839774982382758 10.201554691419012, -6.9166529218949675 23.760867584934054 C-9.94932834555166 37.320180478449096, -18.107988848434665 67.31907460721395, -18.517471095158395 82.16089496316141 C-18.926953341882125 97.00271531910887, -12.231115603506376 105.88358077395544, -9.373546402237356 112.81178972061885 C-6.515977200968335 119.73999866728225, -7.659288478820862 120.55676788140784, -1.3720558875442748 123.7301486431418 C4.915176703732312 126.90352940487577, 13.743166689882466 130.86539789953852, 28.349849145422162 131.8520742910226 C42.95653160096186 132.83875068250669, 74.25918951495073 130.21478822885103, 86.2680388456939 129.6502069920463 C98.27688817643705 129.08562575524155, 97.97877058458609 128.4341846163452, 100.40294512988109 128.46458687019413 C102.82711967517609 128.49498912404306, 100.75818674541144 129.8855472104867, 100.81308611746388 129.83262051513987 C100.86798548951633 129.77969381979304, 100.75685244913656 128.39762312758552, 100.7323413621958 128.14702669811314 M1.71069797700271 0.18204789781942976 C0.5786930794687271 4.579315764411907, -4.55832456841443 11.084130218271177, -7.547246857462853 24.88100378752646 C-10.536169146511277 38.67787735678174, -15.884732167785891 68.69230620417929, -16.22283575728783 82.96328931335113 C-16.560939346789766 97.23427242252296, -12.318698489446003 103.59009358217777, -9.575868394474476 110.50690244255749 C-6.833038299502949 117.4237113029372, -5.749522779035658 120.98686221292938, 0.23414481254133523 124.46414247562942 C6.2178124041183285 127.94142273832945, 11.846643566182294 130.75769376854996, 26.326137154987485 131.37058401875768 C40.805630743792676 131.9834742689654, 74.37308256578156 128.59624488294148, 87.11110634537248 128.14148397687575 C99.8491301249634 127.68672307081002, 100.2229201839408 128.52949506775218, 102.75427983253303 128.64201858236333 C105.28563948112526 128.7545420969745, 102.59898661200953 128.91590776734623, 102.29926423692586 128.81662506454262 C101.9995418618422 128.71734236173901, 101.27129261517409 128.49887792518203, 100.95594558203105 128.04632236554167" transform="translate(348.66643716089476 253.61117727752463) rotate(0 42.65575125132173 66.11910576140579)"/></g></g><g><path fill="none" stroke="#000" stroke-width="1" d="M35.85221098501046 1.244295368377614 C44.01643954840161 -1.2433196983569563, 55.804335699463444 -0.8188319107295325, 64.06099974855955 1.6016724143408467 C72.31766379765567 4.0221767394112256, 80.06439370055149 9.360362085448827, 85.39219527958713 15.76732131879989 C90.71999685862276 22.174280552150954, 95.4445937752994 32.045118911638625, 96.02780922277339 40.04342781444723 C96.61102467024737 48.04173671725583, 93.38222805280638 56.939592729136955, 88.89148796443106 63.75717473565149 C84.40074787605575 70.57475674216602, 76.80516569161418 77.37931730073046, 69.08336869252147 80.94891985353442 C61.36157169342877 84.51852240633838, 51.360510047632346 86.2421711998961, 42.56070596987485 85.17479005247519 C33.76090189211736 84.10740890505427, 22.950952174683145 79.6787204619864, 16.284544225976525 74.54463296900892 C9.618136277269905 69.41054547603143, 4.845865746340545 61.584273071785596, 2.5622582776351237 54.370265094610275 C0.27865080892970306 47.156257117434954, -0.0030973231150688285 38.81962273736598, 2.582899413744002 31.260585105957002 C5.168896150603073 23.701547474548022, 11.194911042519038 14.050564966842877, 18.078238698789548 9.0160393061564 C24.961566355060057 3.981513645469925, 38.53447544755283 2.4620063817025075, 43.88286535136706 1.0534311418381463 C49.23125525518129 -0.3551440980262146, 50.15037019264102 0.029794124618246598, 50.16857812167494 0.5645878669702356 M53.63191347098854 0.116332677937109 C62.027295407747744 0.4213323970111548, 71.97099993923835 5.249664546196001, 78.86532945118209 10.304929911861649 C85.75965896312583 15.360195277527296, 92.46770915258779 22.787249971727935, 94.99789054265094 30.447924871930994 C97.52807193271408 38.10859977213405, 96.63104740125188 48.62909155889936, 94.04641779156094 56.268979313079996 C91.46178818187 63.90886706726063, 86.58863062859146 71.65811813323839, 79.49011288450532 76.2872513970148 C72.39159514041918 80.91638466079121, 60.582935632985254 83.53276977570303, 51.45531132704412 84.04377889573846 C42.32768702110299 84.55478801577388, 32.443279036177586 82.72081324166909, 24.724367048858532 79.35330611722733 C17.00545506153948 75.98579899278558, 9.202992900540078 70.49599119825268, 5.141839403129801 63.83873614908791 C1.0806859057195242 57.18148109992313, -0.7688254022385739 47.40554073603488, 0.3574460643968749 39.409775822238686 C1.4837175310323236 31.414010908442492, 6.409636572524477 22.224561100667263, 11.899468202942494 15.864146666310738 C17.38929983336051 9.503732231954213, 26.362671769478123 3.6237323842307028, 33.29643584690498 1.2472892160995315 C40.23019992433183 -1.1291539520316398, 50.1404933984574 1.4584697688689328, 53.50205266750361 1.6054876575237103 C56.86361193654982 1.7525055461784877, 53.576477899508006 1.5006282792883106, 53.465791461182256 2.129396548028197" transform="translate(464.50117916794295 350.4607680766075) rotate(0 47.988692573879064 42.63036976689878)"/></g><g><g><path fill="none" stroke="#000" stroke-width="1" d="M0.2081447783857584 0.9565974589437245 C6.02511655051747 1.0392741182306109, 23.715712662651253 0.6119371004456677, 33.983509244202914 0.20431145547848928 C44.25130582575457 -0.20331418948868912, 53.83688325029466 -1.198162763042092, 61.81492426769572 -1.4891564108593458 C69.79296528509678 -1.7801500586765997, 74.77730484037413 -1.4341060450381633, 81.85175534860926 -1.5416504314250346 C88.92620585684439 -1.6491948178119058, 97.95736777482793 -2.68983168915672, 104.26162731710654 -2.1344227291805735 C110.56588685938516 -1.579013769204427, 115.46093493331276 -0.13158048705020176, 119.67731260228092 1.7908033284318434 C123.89369027124908 3.7131871439138884, 126.24727583115627 4.628099485038632, 129.55989333091551 9.399880163711696 C132.87251083067474 14.17166084238476, 137.70530214960272 21.06693105850423, 139.55301760083634 30.421487400470227 C141.40073305206997 39.77604374243622, 141.45202695194473 54.608590920393695, 140.64618603831727 65.52721821550769 C139.8403451246898 76.44584551062168, 134.73344151103947 90.7916470974846, 134.71797211907153 95.9332511711542 C134.7025027271036 101.0748552448238, 139.76219797249402 96.3990997949966, 140.55336968650965 96.37684265752524 M-1.141717942301184 0.41320717955008135 C4.5902304713662865 0.18334741145831332, 22.569422047133607 -0.8923645518479847, 32.991332633654864 -1.5128563094049992 C43.41324322017612 -2.1333480669620135, 53.17182538340467 -3.4264554094315463, 61.38974557682636 -3.3097433657920057 C69.60766577024803 -3.193031322152465, 74.89297097501098 -1.1041209896921214, 82.29885379418495 -0.8125840475677546 C89.70473661335892 -0.5210471054433878, 99.36597438361736 -1.7802188153454455, 105.82504249187019 -1.5605217130458051 C112.28411060012303 -1.3408246107461648, 117.07396667735702 -1.6062637258955204, 121.05326244370201 0.5055985662300873 C125.032558210047 2.617460858355695, 126.81265352878427 6.164941685813333, 129.7008170899401 11.11065203970784 C132.58898065109594 16.05636239360235, 136.76517574511985 21.365260265824, 138.38224381063702 30.17986068959713 C139.9993118761542 38.994461113370264, 139.97119348438298 53.08627824708201, 139.40322548304323 63.99825458234665 C138.83525748170348 74.91023091761129, 134.73838808290742 90.5976177335134, 134.97443580259852 95.65171870118496 C135.21048352228962 100.70581966885652, 139.8007697185267 94.31585253873624, 140.81951180118992 94.32286038837597" transform="translate(431.40552911699194 57.42869410199813) rotate(0 69.9999690653326 47.503617511990925)"/></g></g><g><g><path fill="none" stroke="#000" stroke-width="1" d="M-0.5097305182367563 -0.4018458064645528 C17.294564472738166 -0.43675638840574976, 89.66548626126479 0.4952178500106451, 107.68936323771334 0.7023280657989404 M1.423522230349481 -1.6584188001975417 C19.54307568256136 -1.6521470131449796, 91.91637207841258 1.174497391048622, 110.03438275260932 1.7393316094366333" transform="translate(596.0564212917541 202.289235404223) rotate(0 54.76232611718626 0.04045640461956168)"/></g><g><path fill="none" stroke="#000" stroke-width="1" d="M80.83190295138016 9.841762947199847 C90.45580124921756 6.422786686786148, 101.29982466469386 4.519613315394477, 108.6765226549477 0.4745573856470606 M80.90912786070808 11.565361115431394 C90.40373137660353 7.5379511293570225, 98.02535576025119 4.6794127692219565, 109.69430799456394 1.9906860011232517" transform="translate(596.0564212917541 202.289235404223) rotate(0 54.76232611718626 0.04045640461956168)"/></g><g><path fill="none" stroke="#000" stroke-width="1" d="M81.55038681899367 -10.6668640989439 C91.06286341081079 -6.4603781266004825, 101.63963517863775 -0.7350373222835103, 108.6765226549477 0.4745573856470606 M81.6276117283216 -8.943265930712354 C90.8933100111009 -6.739694544690044, 98.29639159570334 -3.360079257581961, 109.69430799456394 1.9906860011232517" transform="translate(596.0564212917541 202.289235404223) rotate(0 54.76232611718626 0.04045640461956168)"/></g></g><g><g><path fill="none" stroke="#000" stroke-width="1" d="M0.35793098174035554 0.08641958869993682 C5.962789895542065 0.8204557235096293, 23.60902607040878 4.14051986892265, 33.85221201610625 5.2626775395449386 C44.09539796180372 6.384835210167227, 40.898229167745455 6.987444489530264, 61.817046655925154 6.819365612433671 C82.73586414410485 6.651286735337078, 138.0384248990674 5.588309443628669, 159.36511694518447 4.254204276965379 C180.69180899130154 2.9200991103020897, 183.14237120425253 0.27308299293664895, 189.77719893262767 -1.1852653875460646 C196.4120266610028 -2.643613768028778, 196.1215347315684 -2.6785198524971916, 199.1740833154353 -4.495886005930902 C202.2266318993022 -6.313252159364612, 204.63161121103107 -7.33712278351295, 208.09249043582903 -12.089462308148324 C211.553369660627 -16.8418018327837, 216.34849034061364 -26.20658914858772, 219.93935866422308 -33.009923153743145 C223.53022698783252 -39.81325715889857, 227.7624480699877 -46.660774405856706, 229.63770037748563 -52.90946633908087 C231.51295268498356 -59.15815827230504, 232.0691210931356 -64.00820613967225, 231.1908725092107 -70.50207475308812 C230.31262392528578 -76.995943366504, 226.66336874613626 -85.39423347112815, 224.36820887393606 -91.87267801957607 C222.07304900173585 -98.351122568024, 221.2884701737189 -102.06677793201217, 217.41991327600957 -109.37274204377567 C213.55135637830023 -116.67870615553917, 204.99233770816974 -129.1694592255343, 201.15686748767996 -135.70846269015706 C197.32139726719018 -142.24746615477983, 195.40796023224462 -146.4997820752848, 194.40709195307087 -148.60676283151233 C193.40622367389713 -150.71374358773986, 194.00448588976712 -148.01414959989486, 195.15165781263744 -148.3503472275222 C196.29882973550775 -148.68654485514955, 200.33293078340378 -150.3147149250721, 201.29012349029279 -150.62394859727632 M-0.9132939821854235 -0.9138140725716949 C4.5455230579228205 -0.057062995068292044, 22.70696405938294 5.235185640310167, 33.093148773171606 6.760877841333686 C43.47933348696027 8.286570042357205, 40.39967981460039 9.001618824197887, 61.403814300546586 8.24033913356942 C82.40794878649278 7.47905944294095, 137.40773363989928 3.680538140831768, 159.11795568884878 2.1931996975628727 C180.82817773779828 0.7058612542939773, 184.7338138950795 0.5832119007587213, 191.6651465942436 -0.6836915260439538 C198.5964792934077 -1.9505949528466289, 198.39404421083032 -3.3234463996445256, 200.70595188383334 -5.408220863253177 C203.01785955683636 -7.492995326861829, 202.5222538620898 -9.045713527389946, 205.5365926322617 -13.192338307695866 C208.55093140243358 -17.338963088001787, 214.99469265425287 -23.994707469626505, 218.79198450486464 -30.287969545088707 C222.58927635547641 -36.58123162055091, 226.63297320691296 -44.69188988566128, 228.32034373593228 -50.951910760469076 C230.0077142649516 -57.21193163527687, 229.6037954464744 -61.15249612351849, 228.91620767898053 -67.84809479393547 C228.22861991148665 -74.54369346435246, 226.35155850393784 -84.14643463046383, 224.194817130969 -91.12550278297097 C222.03807575800016 -98.10457093547811, 219.8063078814545 -102.6927878269569, 215.9757594411674 -109.72250370897835 C212.14521100088032 -116.7522195909998, 204.38869883123243 -126.86168786737957, 201.21152648924644 -133.30379807509965 C198.03435414726044 -139.74590828281973, 198.3791897184493 -145.831253488994, 196.91272538925153 -148.37516495529883 C195.44626106005376 -150.91907642160365, 192.02787473185066 -148.3313533866033, 192.41274051405972 -148.5672668729285 C192.79760629626878 -148.80318035925373, 197.9589425815248 -149.60920782458683, 199.221920082506 -149.79064587325018" transform="translate(584.4728774313601 381.91616464590095) rotate(0 115.3419118291003 -71.03954646663465)"/></g></g><g><path fill="none" stroke="#000" stroke-width="1" d="M31.272270080588612 1.9770090591974494 C38.69202018102237 -0.8184194696943532, 49.14593496273799 -1.2379527423309504, 57.064674275840495 1.1285179380057997 C64.98341358894301 3.49498861834255, 73.65801731622494 10.090621506851509, 78.78470595920366 16.17583314121795 C83.91139460218238 22.26104477558439, 87.33674249051634 30.30912978489738, 87.82480613371284 37.63978774420445 C88.31286977690934 44.970445703511515, 85.91186295981555 53.51746956697491, 81.7130878183826 60.15978089706036 C77.51431267694966 66.8020922271458, 70.42715271369072 74.41723414743116, 62.63215528511513 77.49365572471714 C54.83715785653955 80.57007730200313, 43.380701891528616 80.22013301281119, 34.943103246929084 78.61831036077629 C26.505504602329548 77.0164877087414, 17.630581949234227 73.23536656194831, 12.006563417517917 67.88271981250773 C6.3825448858016065 62.53007306306715, 2.4819323270400604 53.93703428613129, 1.1989920566312193 46.50242986413283 C-0.08394821377762196 39.067825442134364, 0.781650970778879 30.187163937356143, 4.308921795064869 23.275093280516934 C7.836192619350859 16.363022623677725, 16.940925631505813 8.88175603336869, 22.362617002347157 5.030005923097569 C27.7843083731885 1.1782558128264484, 33.171338206221755 0.7761752513085783, 36.83907002011294 0.16459261889021093 C40.50680183400413 -0.4469900135281565, 44.0639455344236 0.7813070372387992, 44.36900788569429 1.3605101285873644 M46.132377721917685 0.08341123579756982 C54.32643035622038 0.05846266493241477, 65.63037738979757 3.6043703432266616, 72.1923909475079 8.233780264193435 C78.75440450521823 12.863190185160207, 83.24273098853205 20.63344447118798, 85.5044590681797 27.85987076159821 C87.76618714782735 35.08629705200844, 87.868865111081 44.19175329841629, 85.76275942539381 51.59233800665482 C83.65665373970661 58.99292271489335, 79.04085502887446 67.70233734442387, 72.8678249540565 72.26337901102939 C66.69479487923854 76.8244206776349, 57.265472773187696 78.49228811627647, 48.72457897648606 78.9585880062879 C40.18368517978442 79.42488789629932, 28.93358437653859 78.65622986708968, 21.622462173846685 75.06117835109794 C14.31133997115478 71.4661268351062, 8.17713505068808 64.22842588537517, 4.857845760334627 57.38827891033742 C1.5385564699811738 50.548131935299665, 0.1981999005909192 41.57372896580393, 1.7067264317259685 34.020296500871424 C3.215252962861018 26.46686403593892, 8.282545711879536 17.54176568890122, 13.909004947144922 12.067684120742381 C19.53546418241031 6.593602552583543, 30.194709400690513 3.121142997109321, 35.46548184331828 1.1758070919183936 C40.736254285946046 -0.7695288132725338, 43.90492228026001 0.2549991018112566, 45.53363960291152 0.39566868959681756 C47.16235692556303 0.5363382773823785, 45.08435329845379 1.3604793748052573, 45.23778577922734 2.019824618631759" transform="translate(725.1294564904638 152.62273945908044) rotate(0 44.265415357506754 40.14706818953806)"/></g><g><text x="0" y="21" fill="#000" font-family="Virgil" font-size="20" text-anchor="start" transform="translate(117.81293745810942 17.595512471987945) rotate(0 48 15)" style="white-space:pre">Branch 1</text></g><g><text x="0" y="21" fill="#000" font-family="Virgil" font-size="20" text-anchor="start" transform="translate(233.2668094753484 376.84950364046574) rotate(0 55 15)" style="white-space:pre">Branch 2</text></g><g><text x="0" y="21" fill="#000" font-family="Virgil" font-size="20" text-anchor="start" transform="translate(372.58941212055834 37.46205777599562) rotate(0 10 15)" style="white-space:pre">P1</text></g><g><text x="0" y="21" fill="#000" font-family="Virgil" font-size="20" text-anchor="start" transform="translate(495.48987174182207 378.0911378435063) rotate(0 17 15)" style="white-space:pre">P2</text></g><g><text x="0" y="21" fill="#000" font-family="Virgil" font-size="20" text-anchor="start" transform="translate(521.8039004467487 186.23096209740942) rotate(0 18.5 15)" style="white-space:pre">C3</text></g><g><text x="0" y="21" fill="#000" font-family="Virgil" font-size="20" text-anchor="start" transform="translate(752.8948718479705 177.7698076486185) rotate(0 16.5 15)" style="white-space:pre">C4</text></g><g><text x="0" y="18" fill="#000" font-family="Virgil" font-size="20" text-anchor="start" transform="translate(22.947996139526367 180.47157802829497) rotate(0 17.5 13)" style="white-space:pre">Init</text></g><g><text x="84" y="14" fill="#adb5bd" font-family="Virgil" font-size="16" text-anchor="middle" transform="translate(648.0699950717461 441.72150761040507) rotate(0 84 10)" style="white-space:pre">Made with Excalidraw</text></g></svg>